<svg class="s-icon__svg" viewBox="0 0 1024 1024" role="img"><path d="M874.057 149.951c-96.692-96.697-225.292-149.951-362.084-149.951s-265.338 53.254-362.030 149.951c-96.692 96.697-149.943 225.304-149.943 362.049 0 136.799 53.251 265.352 149.943 362.049s225.292 149.951 362.030 149.951c136.738 0 265.338-53.254 362.084-149.951 96.692-96.697 149.943-225.304 149.943-362.049s-53.251-265.352-149.943-362.049zM807.979 485.104c-1.725-57.781-8.839-113.784-21.020-166.175 19.295 7.816 37.674 16.547 54.868 26.088 70.552 39.186 114.047 88.181 125.258 140.033l-159.106 0.054zM754.081 485.104h-215.159v-215.17c66.132 2.048 129.624 11.696 187.078 28.082 16.439 57.458 26.033 120.899 28.081 187.088zM538.922 216.033v-159.168c51.903 11.211 100.842 54.709 140.026 125.265 9.54 17.194 18.271 35.574 26.086 54.871-52.388-12.181-108.388-19.296-166.166-20.967h0.054zM485.024 56.811v159.168c-57.778 1.725-113.778 8.84-166.166 20.967 7.815-19.296 16.547-37.676 26.086-54.871 39.184-70.556 88.176-114.053 140.026-125.265h0.054zM485.024 269.933v215.17h-215.159c2.048-66.136 11.696-129.63 28.081-187.088 57.455-16.44 120.892-26.034 187.078-28.082zM215.968 485.104h-159.16c11.211-51.906 54.706-100.848 125.258-140.033 17.193-9.54 35.572-18.272 54.868-26.088-12.181 52.391-19.295 108.394-20.966 166.175v-0.054zM215.968 539.004c1.725 57.781 8.839 113.784 20.966 166.175-19.295-7.816-37.674-16.547-54.868-26.088-70.552-39.186-114.047-88.181-125.258-140.033l159.16-0.054zM269.865 539.004h215.159v215.17c-66.132-2.048-129.624-11.696-187.078-28.082-16.439-57.458-26.033-120.899-28.081-187.088zM485.024 808.075v159.168c-51.903-11.211-100.842-54.709-140.026-125.265-9.54-17.194-18.271-35.574-26.086-54.871 52.388 12.181 108.388 19.296 166.166 21.021l-0.054-0.054zM538.922 967.297v-159.168c57.778-1.725 113.778-8.84 166.166-21.021-7.815 19.296-16.547 37.676-26.086 54.871-39.184 70.556-88.176 114.053-140.026 125.265l-0.054 0.054zM538.922 754.175v-215.17h215.159c-2.048 66.136-11.696 129.63-28.081 187.088-57.455 16.44-120.892 26.034-187.078 28.082zM807.979 539.004h159.16c-11.211 51.906-54.706 100.848-125.258 140.033-17.193 9.54-35.572 18.272-54.868 26.088 12.181-52.391 19.295-108.394 20.966-166.175v0.054zM939.489 347.388c-20.373-17.787-44.25-34.388-71.414-49.481-30.183-16.763-63.437-31.154-99.010-42.959-11.857-35.574-26.194-68.831-42.956-99.015-15.091-27.166-31.692-51.044-49.478-71.418 120.407 46.516 216.345 142.513 262.858 262.872zM347.316 84.516c-17.786 20.374-34.387 44.252-49.478 71.418-16.762 30.184-31.153 63.441-42.956 99.015-35.572 11.858-68.827 26.196-99.010 42.959-27.164 15.092-51.041 31.693-71.414 49.481 46.514-120.414 142.505-216.356 262.858-262.872zM84.457 676.72c20.373 17.787 44.25 34.388 71.414 49.481 30.183 16.763 63.437 31.154 99.010 42.959 11.857 35.574 26.194 68.831 42.956 99.015 15.091 27.166 31.692 51.044 49.478 71.418-120.407-46.516-216.345-142.513-262.858-262.872zM676.63 939.592c17.786-20.374 34.387-44.252 49.478-71.418 16.762-30.184 31.153-63.441 42.956-99.015 35.572-11.858 68.827-26.196 99.010-42.959 27.164-15.092 51.041-31.693 71.414-49.481-46.514 120.414-142.505 216.356-262.858 262.872z"></path></svg>